#!OML:ASF F:\VICON\USERDATA\INSTALL\Justin_Nancy\Justin_Nancy.ASF
:FULLY-SPECIFIED
:DEGREES
222
root -11.6175 17.1454 20.4801 4.61985 -44.5931 -7.02668
lowerback 7.65024 1.62033 3.71434
upperback -0.439813 2.65079 3.9143
thorax -4.77354 1.25214 1.67944
lowerneck -15.2835 -4.31767 -10.4835
upperneck 23.0753 -4.90302 5.71406
head 10.3102 -2.57148 3.11568
rclavicle 5.11125e-014 -1.59028e-015
rhumerus -28.9223 -10.0317 -79.0123
rradius 34.7571
rwrist -0.185381
rhand -14.6513 13.2038
rfingers 7.12502
rthumb 11.5011 -16.4607
lclavicle 5.11125e-014 -1.59028e-015
lhumerus -34.7872 10.6886 85.798
lradius 23.349
lwrist -11.0864
lhand -16.7751 26.8736
lfingers 7.12502
lthumb 9.45237 56.6416
rfemur 2.92638 7.58988 34.0978
rtibia 21.8992
rfoot -14.9711 -8.83182
rtoes -1.54459
lfemur -32.5019 1.64554 -13.5477
ltibia 47.1578
lfoot -9.66819 5.82696
ltoes -3.55221
223
root -11.7744 17.1348 20.6618 4.62709 -44.8627 -7.03577
lowerback 7.63822 1.69605 3.76711
upperback -0.376391 2.75073 3.8968
thorax -4.69744 1.30106 1.62116
lowerneck -15.2542 -4.35488 -10.5454
upperneck 22.8304 -4.92026 5.67925
head 10.2192 -2.58436 3.10819
rclavicle -3.23025e-016 1.74931e-014
rhumerus -28.2665 -8.86978 -79.4063
rradius 35.6906
rwrist -1.10858
rhand -15.2776 13.1622
rfingers 7.12502
rthumb 10.897 -16.535
lclavicle -3.23025e-016 1.74931e-014
lhumerus -35.0796 11.1925 85.5897
lradius 22.6728
lwrist -11.8829
lhand -16.2908 26.7924
lfingers 7.12502
lthumb 9.91957 56.5387
rfemur 4.25878 7.64228 34.1687
rtibia 21.0821
rfoot -15.0474 -9.05522
rtoes -2.28789
lfemur -32.4361 0.944395 -13.4411
ltibia 44.0047
lfoot -9.49972 6.11218
ltoes -1.42281
224
root -11.9264 17.1208 20.8415 4.89791 -44.9572 -7.28681
lowerback 7.61672 1.75891 3.97268
upperback -0.35262 2.85053 3.93562
thorax -4.65308 1.34586 1.53653
lowerneck -15.5418 -4.3265 -10.2825
upperneck 22.875 -4.86356 5.47303
head 10.2719 -2.5539 2.99543
rclavicle -5.90142e-014 7.95139e-015
rhumerus -27.4333 -8.35751 -79.597
rradius 36.2937
rwrist -1.42753
rhand -15.4241 13.1374
rfingers 7.12502
rthumb 10.7557 -16.5673
lclavicle -5.90142e-014 7.95139e-015
lhumerus -35.3998 11.3777 85.5397
lradius 22.1616
lwrist -12.3665
lhand -16.1294 26.8162
lfingers 7.12502
lthumb 10.0753 56.555
rfemur 5.45525 7.60151 34.3898
rtibia 20.3294
rfoot -15.1802 -8.96201
rtoes -2.65018
lfemur -32.542 -0.378206 -12.8947
ltibia 40.7019
lfoot -9.4596 6.61176
ltoes -0.585862
225
root -12.0793 17.1032 21.0209 5.45244 -45.0878 -7.71765
lowerback 7.40896 1.80913 4.31474
upperback -0.39913 2.9372 4.00818
thorax -4.57185 1.38135 1.41787
lowerneck -15.7229 -4.13586 -10.0888
upperneck 23.0216 -4.61006 5.39021
head 10.3285 -2.42936 2.96935
rclavicle -9.67087e-014 2.70347e-014
rhumerus -26.7995 -7.43381 -79.8051
rradius 37.0965
rwrist -2.12577
rhand -15.4292 13.1787
rfingers 7.12502
rthumb 10.7508 -16.5262
lclavicle -9.67087e-014 2.70347e-014
lhumerus -35.7415 11.8485 85.3617
lradius 21.5488
lwrist -13.0127
lhand -16.7305 26.6508
lfingers 7.12502
lthumb 9.49537 56.4169
rfemur 6.53591 7.60929 34.6675
rtibia 19.524
rfoot -15.3222 -8.65772
rtoes -1.98498
lfemur -32.7372 -1.21632 -12.3881
ltibia 37.5709
lfoot -9.49495 7.22702
ltoes -6.22593
226
root -12.238 17.0727 21.2076 5.57793 -45.3803 -7.56265
lowerback 7.24042 1.88573 4.27776
upperback -0.533972 3.03112 3.95491
thorax -4.61622 1.42727 1.37648
lowerneck -15.7286 -4.06187 -10.3705
upperneck 23.2228 -4.4927 5.59747
head 10.4046 -2.38048 3.11067
rclavicle -1.42032e-013 -1.27222e-014
rhumerus -26.2898 -6.8676 -79.8992
rradius 37.6187
rwrist -2.17557
rhand -15.2421 13.4981
rfingers 7.12502
rthumb 10.9312 -16.1974
lclavicle -1.42032e-013 -1.27222e-014
lhumerus -36.4569 12.5624 85.0215
lradius 21.165
lwrist -13.7352
lhand -17.175 26.5358
lfingers 7.12502
lthumb 9.06645 56.321
rfemur 7.57964 7.53551 34.4422
rtibia 18.8723
rfoot -15.3935 -8.53649
rtoes -2.50818
lfemur -32.7523 -2.15579 -12.254
ltibia 34.4978
lfoot -9.90301 8.06482
ltoes -9.66569
227
root -12.3968 17.048 21.3933 5.97141 -45.5103 -7.67741
lowerback 7.03848 1.96763 4.42672
upperback -0.740473 3.15095 3.94176
thorax -4.70924 1.48 1.27126
lowerneck -15.4597 -4.18924 -10.5904
upperneck 23.1437 -4.68205 5.74643
head 10.352 -2.47338 3.17579
rclavicle -5.52621e-014 2.38542e-015
rhumerus -26.0023 -6.4061 -79.9107
rradius 38.2634
rwrist -1.95325
rhand -15.1137 13.6019
rfingers 7.12502
rthumb 11.0551 -16.0869
lclavicle -5.52621e-014 2.38542e-015
lhumerus -37.2333 13.3196 84.5978
lradius 20.8079
lwrist -14.5915
lhand -17.4033 26.536
lfingers 7.12502
lthumb 8.84618 56.3306
rfemur 8.39851 7.27652 34.4008
rtibia 18.3776
rfoot -15.413 -8.30045
rtoes -3.58087
lfemur -32.9495 -3.14136 -11.8687
ltibia 31.6478
lfoot -10.6952 8.99426
ltoes -9.66346
228
root -12.5521 17.0279 21.5702 6.35678 -45.6905 -7.79438
lowerback 6.91123 2.03452 4.40609
upperback -0.927119 3.24394 4.01892
thorax -4.83808 1.52422 1.35524
lowerneck -15.3143 -4.22075 -10.5825
upperneck 23.1031 -4.70357 5.58649
head 10.3081 -2.50296 3.11437
rclavicle -4.11981e-014 -2.8625e-014
rhumerus -25.8107 -5.55905 -79.8884
rradius 39.2656
rwrist -2.08824
rhand -15.0407 13.1851
rfingers 7.12502
rthumb 11.1255 -16.5
lclavicle -4.11981e-014 -2.8625e-014
lhumerus -37.8249 13.9261 84.3474
lradius 20.3232
lwrist -15.1616
lhand -17.6122 26.4149
lfingers 7.12502
lthumb 8.64463 56.2179
rfemur 9.09373 7.26973 34.4372
rtibia 18.0049
rfoot -15.3528 -8.23533
rtoes -4.33184
lfemur -33.164 -4.07313 -11.4627
ltibia 28.9334
lfoot -11.0387 10.2021
ltoes -10.3443
229
root -12.7138 17.0038 21.759 6.42287 -46.0382 -7.6701
lowerback 6.73175 2.12368 4.20284
upperback -0.958317 3.33652 4.05246
thorax -4.7819 1.57721 1.49946
lowerneck -15.4519 -4.20844 -10.6885
upperneck 23.2304 -4.66267 5.64444
head 10.3814 -2.48701 3.15908
rclavicle 4.5472e-015 7.15625e-015
rhumerus -25.3702 -5.09575 -79.851
rradius 39.9843
rwrist -2.21683
rhand -15.1204 13.1629
rfingers 7.12502
rthumb 11.0487 -16.5264
lclavicle 4.5472e-015 7.15625e-015
lhumerus -38.3301 14.8933 83.8985
lradius 19.8623
lwrist -16.2428
lhand -17.3387 26.4778
lfingers 7.12502
lthumb 8.90855 56.2698
rfemur 10.052 7.20354 34.2084
rtibia 17.5858
rfoot -15.4604 -7.92704
rtoes -3.532
lfemur -33.276 -5.44152 -10.9764
ltibia 26.5758
lfoot -11.3189 11.8069
ltoes -10.4587
230
root -12.8833 16.9904 21.9639 6.27146 -46.4999 -7.27804
lowerback 6.18947 2.2918 4.11619
upperback -0.763894 3.49589 3.82254
thorax -4.26121 1.66619 1.3169
lowerneck -15.6343 -4.24633 -10.6452
upperneck 23.1137 -4.76434 5.89608
head 10.3873 -2.49485 3.22525
rclavicle 1.717e-014 3.97569e-015
rhumerus -24.7553 -5.02496 -79.9753
rradius 40.6912
rwrist -2.45839
rhand -14.8116 13.439
rfingers 7.12502
rthumb 11.3465 -16.234
lclavicle 1.717e-014 3.97569e-015
lhumerus -38.5913 15.8301 83.2565
lradius 19.5356
lwrist -17.3841
lhand -16.3677 26.7215
lfingers 7.12502
lthumb 9.84543 56.4713
rfemur 11.1756 7.24733 33.6362
rtibia 17.2216
rfoot -15.769 -6.94605
rtoes -0.896906
lfemur -33.3491 -6.94733 -10.6379
ltibia 24.5854
lfoot -11.7261 13.8658
ltoes -10.3573
231
root -13.0526 16.9752 22.1586 6.44506 -46.8548 -7.36127
lowerback 5.91296 2.45445 4.25536
upperback -0.733046 3.69796 3.71748
thorax -4.05615 1.76577 1.12472
lowerneck -15.6258 -4.27387 -10.5252
upperneck 22.9809 -4.84244 5.94671
head 10.3421 -2.5119 3.21068
rclavicle 1.02846e-013 -3.4191e-014
rhumerus -24.457 -4.95841 -80.0689
rradius 41.5044
rwrist -2.71854
rhand -14.6883 13.4168
rfingers 7.12502
rthumb 11.4654 -16.2497
lclavicle 1.02846e-013 -3.4191e-014
lhumerus -38.9326 15.9869 82.9961
lradius 19.1733
lwrist -17.5987
lhand -16.3828 26.8018
lfingers 7.12502
lthumb 9.83089 56.5523
rfemur 12.2601 7.50537 33.5372
rtibia 16.9496
rfoot -15.9114 -6.01459
rtoes 1.69058
lfemur -33.4928 -7.58616 -10.2792
ltibia 22.9591
lfoot -12.1394 15.294
ltoes -10.8259
232
root -13.2178 16.9514 22.3428 6.75429 -47.03 -7.69278
lowerback 5.92947 2.46198 4.32502
upperback -0.860784 3.7252 3.83575
thorax -4.20247 1.77503 1.20292
lowerneck -15.4063 -4.10494 -10.5532
upperneck 22.871 -4.62028 5.95867
head 10.2399 -2.41345 3.25192
rclavicle -4.33599e-014 -1.59028e-014
rhumerus -24.2661 -4.58236 -80.1132
rradius 42.075
rwrist -2.74308
rhand -15.0854 13.5748
rfingers 7.12502
rthumb 11.0823 -16.1126
lclavicle -4.33599e-014 -1.59028e-014
lhumerus -39.5536 16.3452 82.7534
lradius 18.874
lwrist -17.5555
lhand -16.5947 26.6095
lfingers 7.12502
lthumb 9.62641 56.3696
rfemur 13.1092 7.49028 33.7224
rtibia 16.7958
rfoot -15.4711 -5.72025
rtoes -0.884869
lfemur -33.7403 -8.41502 -9.60822
ltibia 21.7725
lfoot -13.3082 16.2111
ltoes -8.67924
233
root -13.385 16.9222 22.5349 6.7595 -47.0742 -7.51726
lowerback 5.66963 2.47729 4.12908
upperback -0.952465 3.72029 3.85571
thorax -4.1648 1.77837 1.34244
lowerneck -15.1913 -3.99668 -10.5077
upperneck 22.8491 -4.4801 5.86348
head 10.1743 -2.35973 3.23133
rclavicle 8.59495e-014 -3.10104e-014
rhumerus -24.1972 -4.1946 -80.0663
rradius 42.7563
rwrist -3.26464
rhand -15.5382 13.5588
rfingers 7.12502
rthumb 10.6456 -16.1515
lclavicle 8.59495e-014 -3.10104e-014
lhumerus -40.1815 17.1543 82.2987
lradius 18.5961
lwrist -18.0514
lhand -16.5159 26.707
lfingers 7.12502
lthumb 9.7024 56.4635
rfemur 13.7478 7.13512 33.4544
rtibia 16.8119
rfoot -15.068 -5.43351
rtoes -5.01368
lfemur -33.9398 -8.76523 -9.68956
ltibia 21.1195
lfoot -14.4977 16.3124
ltoes -7.87933
234
root -13.5471 16.8934 22.7206 6.65923 -46.9272 -7.36229
lowerback 5.60458 2.42511 3.99861
upperback -0.961799 3.63869 3.87099
thorax -4.14698 1.74182 1.44053
lowerneck -15.3133 -3.9645 -10.3692
upperneck 22.9547 -4.40802 5.65459
head 10.2209 -2.33792 3.14328
rclavicle -1.43125e-014 -6.36111e-015
rhumerus -24.0287 -4.06366 -79.9903
rradius 43.4344
rwrist -3.94026
rhand -15.5031 13.7098
rfingers 7.12502
rthumb 10.6795 -15.9987
lclavicle -1.43125e-014 -6.36111e-015
lhumerus -40.692 17.8106 81.9799
lradius 18.4956
lwrist -18.3984
lhand -16.2944 26.8954
lfingers 7.12502
lthumb 9.91609 56.6419
rfemur 14.4551 6.85593 33.2827
rtibia 16.9676
rfoot -14.6838 -4.99368
rtoes -7.1187
lfemur -33.9579 -7.33731 -10.7283
ltibia 20.9597
lfoot -14.4765 14.5304
ltoes -9.73207
